<svg width="20" height="20" viewBox="0 0 20 20" fill="none" xmlns="http://www.w3.org/2000/svg">
<path d="M13.1605 20H13.0337C8.70169 20 6.61374 18.296 6.25274 14.4791C6.21371 14.0798 6.50641 13.7196 6.9162 13.6806C7.30647 13.6417 7.67723 13.9435 7.71626 14.3427C7.9992 17.4002 9.44321 18.5394 13.0435 18.5394H13.1703C17.1413 18.5394 18.5463 17.1373 18.5463 13.1743V6.8257C18.5463 2.8627 17.1413 1.46056 13.1703 1.46056H13.0435C9.42369 1.46056 7.97969 2.61928 7.71626 5.73515C7.66747 6.13437 7.32599 6.43622 6.9162 6.39727C6.50641 6.36806 6.21371 6.00778 6.24298 5.60856C6.57471 1.7332 8.67242 0 13.0337 0H13.1605C17.9511 0 20.0001 2.04479 20.0001 6.8257V13.1743C20.0001 17.9552 17.9511 20 13.1605 20Z" fill="#0290FF" fill-opacity="0.8"/>
<path d="M2.4952 10.7303H12.925C13.3251 10.7303 13.6568 10.3992 13.6568 10C13.6568 9.60078 13.3251 9.26971 12.925 9.26971H2.4954L4.51495 7.25423C4.7979 6.97185 4.7979 6.50447 4.51495 6.2221C4.23201 5.93972 3.76368 5.93972 3.48073 6.2221L0.21221 9.48403C-0.0707367 9.76641 -0.0707367 10.2338 0.21221 10.5162L3.48073 13.7781C3.62709 13.9241 3.81246 13.9923 3.99784 13.9923C4.18322 13.9923 4.37836 13.9241 4.51495 13.7781C4.7979 13.4957 4.7979 13.0283 4.51495 12.746L2.4952 10.7303Z" fill="#0290FF" fill-opacity="0.8"/>
</svg>
