<svg width="19" height="20" viewBox="0 0 19 20" fill="none" xmlns="http://www.w3.org/2000/svg">
<path d="M6.33333 9V11H4.22222V9H6.33333ZM10.5556 9V11H8.44444V9H10.5556ZM14.7778 9V11H12.6667V9H14.7778ZM16.8889 2C17.4488 2 17.9858 2.21071 18.3817 2.58579C18.7776 2.96086 19 3.46957 19 4V18C19 18.5304 18.7776 19.0391 18.3817 19.4142C17.9858 19.7893 17.4488 20 16.8889 20H2.11111C0.939444 20 0 19.1 0 18V4C0 3.46957 0.22242 2.96086 0.61833 2.58579C1.01424 2.21071 1.55121 2 2.11111 2H3.16667V0H5.27778V2H13.7222V0H15.8333V2H16.8889ZM16.8889 18V7H2.11111V18H16.8889ZM6.33333 13V15H4.22222V13H6.33333ZM10.5556 13V15H8.44444V13H10.5556ZM14.7778 13V15H12.6667V13H14.7778Z" fill="#DFE0E1" fill-opacity="0.8"/>
</svg>
