<svg width="18" height="18" viewBox="0 0 18 18" fill="none" xmlns="http://www.w3.org/2000/svg">
<path fill-rule="evenodd" clip-rule="evenodd" d="M16.0051 3.34895C17.2528 4.89373 18 6.85961 18 9C18 13.9706 13.9706 18 9 18C6.85961 18 4.89373 17.2528 3.34895 16.0051L1.63446 17.7196C1.26056 18.0935 0.654336 18.0935 0.28043 17.7196C-0.0934766 17.3457 -0.0934766 16.7394 0.28043 16.3655L1.99492 14.651C0.747171 13.1063 0 11.1404 0 9C0 4.02944 4.02944 0 9 0C11.1404 0 13.1063 0.747171 14.651 1.99492L16.3655 0.28043C16.7394 -0.0934766 17.3457 -0.0934766 17.7196 0.28043C18.0935 0.654336 18.0935 1.26056 17.7196 1.63446L16.0051 3.34895ZM16.0851 9C16.0851 12.913 12.913 16.0851 9 16.0851C7.38872 16.0851 5.90306 15.5472 4.71277 14.6413L14.6413 4.71277C15.5472 5.90306 16.0851 7.38872 16.0851 9ZM3.35874 13.2872L13.2872 3.35874C12.0969 2.45276 10.6113 1.91489 9 1.91489C5.087 1.91489 1.91489 5.087 1.91489 9C1.91489 10.6113 2.45276 12.0969 3.35874 13.2872Z" fill="#0290FF" fill-opacity="0.4"/>
</svg>
