<svg width="16" height="15" viewBox="0 0 16 15" fill="none" xmlns="http://www.w3.org/2000/svg">
<path d="M14.8775 0.9375C15.0425 0.9375 15.19 1 15.32 1.125C15.44 1.245 15.5 1.39 15.5 1.56V13.44C15.5 13.61 15.44 13.755 15.32 13.875C15.19 14 15.0425 14.0625 14.8775 14.0625H4.8725C4.7075 14.0625 4.56 14 4.43 13.875C4.31 13.755 4.25 13.61 4.25 13.44V11.25H1.1225C0.9575 11.25 0.81 11.19 0.68 11.07C0.56 10.94 0.5 10.7925 0.5 10.6275V4.3725C0.5 4.2075 0.56 4.06 0.68 3.93C0.81 3.81 0.9575 3.75 1.1225 3.75H4.25V1.56C4.25 1.39 4.31 1.245 4.43 1.125C4.56 1 4.7075 0.9375 4.8725 0.9375H14.8775ZM4.25 8.295L5.135 9.96H6.4775L5 7.545L6.4475 5.1675H5.165L4.3475 6.675L4.3175 6.72L4.295 6.7725C4.165 6.5075 4.025 6.24 3.875 5.97C3.75 5.705 3.6175 5.4375 3.4775 5.1675H2.12L3.5375 7.56L2 9.96H3.335L4.25 8.295ZM9.41 13.125V11.25H5.1875V13.125H9.41ZM9.41 10.3125V7.9725H8V10.3125H9.41ZM9.41 7.035V4.6875H8V7.035H9.41ZM9.41 3.75V1.875H5.1875V3.75H9.41ZM14.5625 13.125V11.25H10.3475V13.125H14.5625ZM14.5625 10.3125V7.9725H10.3475V10.3125H14.5625ZM14.5625 7.035V4.6875H10.3475V7.035H14.5625ZM14.5625 3.75V1.875H10.3475V3.75H14.5625Z" fill="#0290FF"/>
</svg>
